<svg xmlns="http://www.w3.org/2000/svg" viewBox="0 0 300 300" width="512" height="512"><g fill="#045546"><path d="M221.755 89.414H78.242a2.595 2.595 0 0 0-2.594 2.594v95.963a2.595 2.595 0 0 0 2.594 2.594h143.513a2.595 2.595 0 0 0 2.594-2.594V92.007a2.595 2.595 0 0 0-2.594-2.593z"/><path d="M149.996 0C67.157 0 .001 67.161.001 149.997S67.157 300 149.996 300s150.003-67.163 150.003-150.003S232.835 0 149.996 0zm92.508 187.97c0 11.458-9.29 20.749-20.749 20.749h-47.144v11.588h23.801a7.78 7.78 0 0 1 7.781 7.781 7.78 7.78 0 0 1-7.781 7.781h-96.826a7.78 7.78 0 0 1-7.781-7.781 7.78 7.78 0 0 1 7.781-7.781h23.801v-11.588H78.242c-11.458 0-20.749-9.29-20.749-20.749V92.007c0-11.458 9.29-20.749 20.749-20.749h143.513c11.458 0 20.749 9.29 20.749 20.749v95.963z"/></g></svg>