<svg xmlns="http://www.w3.org/2000/svg" viewBox="0 0 300 300" width="512" height="512"><g fill="gray"><path d="M137.031 218.953h25.936v15.562h-25.936zm56.032-145.518h-86.128c-3.665 0-6.647 2.843-6.647 6.331v123.592c0 3.491 2.98 6.331 6.647 6.331h86.13c3.665 0 6.647-2.843 6.647-6.331V79.766c-.002-3.491-2.982-6.331-6.649-6.331z"/><path d="M149.996 0C67.157 0 .001 67.161.001 149.997S67.157 300 149.996 300s150.003-67.163 150.003-150.003S232.835 0 149.996 0zm68.733 221.427c0 11.458-9.29 20.749-20.749 20.749h-95.963c-11.458 0-20.749-9.29-20.749-20.749V77.916c0-11.458 9.29-20.749 20.749-20.749h95.963c11.458 0 20.749 9.29 20.749 20.749v143.511z"/></g></svg>